<?xml version="1.0" standalone="no"?>
<!DOCTYPE svg PUBLIC "-//W3C//DTD SVG 20010904//EN"
 "http://www.w3.org/TR/2001/REC-SVG-20010904/DTD/svg10.dtd">
<svg version="1.0" xmlns="http://www.w3.org/2000/svg"
 width="4473.000000pt" height="3395.000000pt" viewBox="0 0 4473.000000 3395.000000"
 preserveAspectRatio="xMidYMid meet">

<g transform="translate(0.000000,3395.000000) scale(0.100000,-0.100000)"
fill="#000000" stroke="none">
<path d="M22315 33939 c-1846 -61 -3815 -361 -5665 -865 -4777 -1301 -8788
-3893 -11759 -7599 -2810 -3505 -4436 -7740 -4805 -12515 -81 -1036 -97 -2272
-46 -3310 71 -1418 248 -2796 512 -3982 23 -104 43 -186 45 -184 2 2 -8 86
-21 187 -149 1101 -213 2264 -203 3644 6 710 10 870 42 1445 179 3210 872
6273 2035 8985 320 747 745 1603 1137 2288 1448 2533 3362 4706 5683 6452
2951 2219 6331 3695 9796 4279 968 163 1858 252 2864 287 375 13 1353 7 1645
-10 706 -42 1219 -92 1855 -182 2832 -400 5607 -1339 8025 -2716 3291 -1875
5964 -4555 7793 -7813 261 -466 590 -1111 802 -1570 1348 -2934 2119 -6276
2280 -9880 78 -1753 -1 -3620 -216 -5133 -20 -137 -34 -251 -32 -253 9 -8 141
595 203 929 393 2095 524 4347 379 6522 -317 4790 -1929 9078 -4729 12585
-543 680 -968 1154 -1625 1811 -441 442 -654 643 -1030 973 -1227 1079 -2624
2046 -4100 2838 -2813 1511 -6071 2479 -9260 2753 -519 44 -995 54 -1605 34z"/>
<path d="M34333 28770 c-151 -40 -267 -127 -355 -270 -8 -14 -482 -1688 -1053
-3720 -571 -2032 -1042 -3699 -1046 -3704 -8 -9 -287 -41 -294 -34 -3 2 -112
430 -245 950 -132 520 -247 965 -255 989 -52 148 -194 265 -352 292 -160 28
-327 -52 -423 -203 -34 -53 -27 -32 -185 -580 -1056 -3656 -1757 -6072 -1768
-6100 -23 -54 -39 -184 -32 -248 22 -179 130 -338 286 -422 l57 -30 791 0 791
0 0 -1265 0 -1265 345 0 345 0 0 1265 0 1265 802 0 801 0 48 31 c65 41 163
148 195 211 92 182 92 349 -1 571 -7 16 26 17 614 17 l621 0 0 -1875 0 -1875
460 0 460 0 0 1890 0 1890 1285 0 1285 0 61 25 c149 60 325 212 407 351 93
156 127 303 119 504 -6 146 -27 247 -76 377 -17 43 -703 2459 -1526 5368
-1218 4305 -1502 5300 -1528 5343 -18 30 -61 82 -97 115 -144 136 -345 187
-537 137z"/>
<path d="M3445 10310 c-951 -108 -1616 -804 -1784 -1870 -99 -627 -15 -1309
223 -1794 272 -557 718 -896 1326 -1008 155 -29 543 -31 725 -5 236 35 435 88
586 158 38 18 69 35 69 39 0 12 -101 454 -105 458 -2 2 -29 -10 -61 -26 -272
-137 -761 -194 -1092 -126 -701 142 -1128 741 -1171 1644 -44 911 256 1590
831 1885 216 111 415 156 693 157 267 0 534 -55 725 -152 34 -17 63 -30 65
-28 2 2 30 108 63 236 l60 233 -52 29 c-106 61 -318 125 -516 155 -124 19
-471 28 -585 15z"/>
<path d="M16295 10310 c-951 -108 -1616 -804 -1784 -1870 -99 -627 -15 -1309
223 -1794 272 -557 718 -896 1326 -1008 155 -29 543 -31 725 -5 236 35 435 88
586 158 38 18 69 35 69 39 0 12 -101 454 -105 458 -2 2 -29 -10 -61 -26 -272
-137 -761 -194 -1092 -126 -701 142 -1128 741 -1171 1644 -44 911 256 1590
831 1885 216 111 415 156 693 157 267 0 534 -55 725 -152 34 -17 63 -30 65
-28 2 2 30 108 63 236 l60 233 -52 29 c-106 61 -318 125 -516 155 -124 19
-471 28 -585 15z"/>
<path d="M19385 10314 c-367 -39 -713 -202 -973 -457 -376 -369 -595 -873
-674 -1552 -20 -169 -16 -628 6 -800 80 -632 293 -1106 648 -1450 259 -252
565 -396 920 -434 404 -44 833 71 1148 308 469 352 746 921 825 1691 24 228
16 692 -14 892 -150 1001 -675 1648 -1446 1783 -88 16 -361 27 -440 19z m281
-485 c227 -31 421 -135 596 -318 341 -355 526 -955 505 -1631 -30 -936 -421
-1618 -1009 -1760 -174 -42 -385 -36 -547 15 -163 52 -288 131 -426 270 -355
355 -544 948 -522 1640 19 592 173 1078 449 1411 237 287 588 424 954 373z"/>
<path d="M23395 10314 c-367 -39 -713 -202 -973 -457 -376 -369 -595 -873
-674 -1552 -20 -169 -16 -628 6 -800 80 -632 293 -1106 648 -1450 259 -252
565 -396 920 -434 404 -44 833 71 1148 308 469 352 746 921 825 1691 24 228
16 692 -14 892 -150 1001 -675 1648 -1446 1783 -88 16 -361 27 -440 19z m281
-485 c227 -31 421 -135 596 -318 341 -355 526 -955 505 -1631 -30 -936 -421
-1618 -1009 -1760 -174 -42 -385 -36 -547 15 -163 52 -288 131 -426 270 -355
355 -544 948 -522 1640 19 592 173 1078 449 1411 237 287 588 424 954 373z"/>
<path d="M26593 10270 c-155 -11 -368 -35 -503 -58 l-105 -18 -3 -2257 -2
-2257 250 0 250 0 0 916 c0 867 1 915 18 910 79 -23 169 -30 377 -30 264 1
382 17 577 80 490 157 797 502 899 1011 30 153 38 472 15 631 -49 330 -184
592 -401 775 -167 141 -374 228 -655 278 -132 24 -506 34 -717 19z m585 -475
c453 -74 702 -386 702 -880 0 -570 -318 -922 -870 -965 -159 -12 -418 6 -512
36 -17 5 -18 56 -18 894 l0 889 53 10 c157 33 491 41 645 16z"/>
<path d="M31095 10273 c-259 -15 -488 -40 -707 -74 l-78 -13 0 -2246 0 -2247
103 -12 c252 -27 405 -35 737 -35 288 -1 379 3 480 17 595 84 1021 287 1320
630 370 422 570 1047 570 1778 0 633 -163 1169 -470 1544 -377 460 -925 671
-1719 663 -102 -1 -208 -3 -236 -5z m590 -478 c652 -87 1077 -468 1234 -1105
45 -185 61 -311 68 -540 28 -969 -301 -1633 -946 -1905 -104 -44 -272 -89
-416 -111 -133 -20 -566 -21 -715 -2 l-95 13 0 1805 0 1805 92 17 c50 9 131
21 180 26 144 15 476 13 598 -3z"/>
<path d="M38890 10269 c-166 -11 -360 -34 -497 -60 l-113 -21 0 -2254 0 -2254
250 0 250 0 0 991 0 991 303 -4 c268 -4 311 -7 378 -26 210 -57 334 -167 440
-387 65 -137 87 -219 180 -675 84 -410 161 -733 199 -832 l21 -58 260 0 c142
0 259 2 259 4 0 2 -11 34 -25 71 -51 134 -117 416 -240 1015 -74 363 -125 534
-204 687 -89 173 -224 317 -353 376 -26 12 -48 26 -48 32 0 5 43 32 96 59 311
158 509 415 601 780 34 136 44 420 20 571 -85 535 -407 864 -944 964 -213 40
-517 51 -833 30z m640 -469 c335 -64 545 -255 622 -565 30 -122 32 -370 4
-490 -57 -246 -199 -431 -410 -536 -179 -88 -207 -92 -613 -97 l-353 -3 0 831
0 830 23 9 c36 14 171 33 292 41 146 10 318 2 435 -20z"/>
<path d="M5230 7965 l0 -2285 250 0 250 0 0 2285 0 2285 -250 0 -250 0 0
-2285z"/>
<path d="M6780 10239 c0 -6 -61 -1026 -135 -2266 -74 -1240 -135 -2264 -135
-2274 0 -18 12 -19 239 -19 l239 0 6 88 c10 127 103 1900 120 2282 25 528 56
1403 56 1554 0 33 4 56 8 50 5 -5 21 -67 36 -139 67 -315 173 -740 302 -1205
57 -205 718 -2481 745 -2567 l11 -33 191 0 192 0 335 1073 c184 589 372 1194
418 1342 141 456 294 996 423 1498 22 85 29 31 29 -230 0 -441 24 -1050 108
-2758 l47 -950 249 -3 248 -2 -6 87 c-10 135 -236 4389 -236 4439 l0 44 -324
0 -325 0 -55 -172 c-689 -2167 -891 -2843 -1031 -3460 -15 -65 -31 -118 -35
-118 -5 0 -16 35 -25 78 -136 623 -247 1024 -715 2570 l-334 1102 -323 0
c-226 0 -323 -3 -323 -11z"/>
<path d="M12270 10246 c0 -4 -1166 -4010 -1315 -4519 l-14 -47 262 2 261 3
192 680 c106 374 197 697 204 718 l11 37 696 -2 696 -3 207 -713 c114 -392
209 -715 212 -717 3 -3 124 -4 270 -3 l266 3 -668 2280 -667 2280 -306 3
c-169 1 -307 0 -307 -2z m344 -723 c73 -326 105 -443 326 -1200 115 -397 210
-726 210 -732 0 -8 -178 -11 -585 -11 -344 0 -585 4 -585 9 0 5 88 312 195
683 199 685 262 918 335 1248 44 200 48 215 55 208 2 -2 25 -94 49 -205z"/>
<path d="M34180 7965 l0 -2285 1100 0 1100 0 0 245 0 245 -850 0 -850 0 0 825
0 825 760 0 760 0 0 245 0 245 -760 0 -760 0 0 725 0 725 805 0 805 0 0 245 0
245 -1055 0 -1055 0 0 -2285z"/>
<path d="M41410 7965 l0 -2285 1090 0 1090 0 0 245 0 245 -840 0 -840 0 0
2040 0 2040 -250 0 -250 0 0 -2285z"/>
<path d="M44071 5464 c0 -11 3 -14 6 -6 3 7 2 16 -1 19 -3 4 -6 -2 -5 -13z"/>
<path d="M2940 4485 l0 -495 3615 0 3615 0 0 495 0 495 -3615 0 -3615 0 0
-495z"/>
<path d="M35630 4485 l0 -495 3615 0 3615 0 0 495 0 495 -3615 0 -3615 0 0
-495z"/>
<path d="M12310 4360 c-567 -36 -883 -299 -907 -756 -12 -233 65 -408 260
-591 79 -73 90 -81 507 -355 422 -278 498 -349 546 -513 23 -82 25 -258 2
-300 -40 -73 -101 -100 -218 -93 -96 6 -139 29 -172 96 -22 44 -23 60 -26 285
l-3 237 -451 0 -450 0 5 -247 c6 -263 13 -320 62 -449 75 -199 235 -342 468
-418 309 -101 814 -112 1127 -26 302 84 485 291 557 631 12 61 17 128 17 244
-1 188 -18 269 -85 394 -100 188 -213 285 -743 637 -203 135 -393 269 -423
297 -70 66 -106 135 -107 204 -1 61 21 96 80 127 57 30 192 29 251 -2 63 -33
73 -60 73 -202 l0 -120 465 0 465 0 0 28 c0 15 -5 68 -10 117 -45 396 -237
624 -605 720 -181 47 -457 69 -685 55z"/>
<path d="M26500 4359 c-357 -21 -610 -119 -773 -300 -67 -74 -117 -165 -154
-284 l-28 -90 -3 -840 c-2 -575 0 -865 8 -920 17 -121 46 -220 97 -325 60
-124 177 -244 298 -307 168 -86 319 -117 570 -117 317 0 520 67 690 226 l63
58 76 -130 77 -130 184 0 185 0 -2 913 -3 912 -557 3 -558 2 0 -270 0 -269
123 -3 122 -3 0 -265 c0 -226 -3 -274 -19 -324 -33 -109 -103 -151 -241 -144
-100 5 -142 29 -180 103 l-30 59 -3 845 c-3 928 -5 890 56 963 33 39 73 55
155 64 128 13 209 -29 237 -123 6 -21 14 -118 17 -215 l6 -178 444 0 445 0 -7
113 c-9 151 -38 314 -74 428 -114 353 -389 518 -916 549 -93 5 -172 9 -175 8
-3 0 -61 -4 -130 -9z"/>
<path d="M14255 4308 c-7 -39 -435 -3092 -435 -3102 0 -3 199 -5 442 -4 l443
3 27 230 c14 127 27 240 27 253 l1 22 275 0 c151 0 275 -1 275 -2 1 -2 15
-115 33 -253 l33 -250 433 -3 433 -2 -6 27 c-3 16 -100 717 -216 1558 -116
842 -212 1536 -215 1543 -3 9 -167 12 -774 12 l-770 0 -6 -32z m790 -530 c4
-20 195 -1548 195 -1563 0 -3 -92 -5 -205 -5 -185 0 -205 2 -205 17 0 18 156
1463 165 1531 5 33 10 42 25 42 12 0 22 -9 25 -22z"/>
<path d="M16520 2770 l0 -1570 445 0 445 0 0 778 c0 443 4 771 9 762 5 -8 100
-328 211 -710 111 -382 211 -725 222 -762 l20 -68 444 0 444 0 0 1570 0 1570
-440 0 -440 0 -2 -744 -3 -744 -194 696 c-107 384 -201 718 -209 745 l-14 47
-469 0 -469 0 0 -1570z"/>
<path d="M20400 2770 l0 -1570 415 0 415 0 2 1114 3 1115 164 -667 c90 -367
213 -868 273 -1115 l110 -447 408 0 c317 0 409 3 412 13 3 6 119 506 259 1110
l254 1098 3 -1111 2 -1110 420 0 420 0 0 1570 0 1570 -700 0 -700 0 -5 -22
c-3 -13 -88 -439 -190 -947 -156 -778 -195 -966 -195 -930 0 6 -368 1848 -375
1877 l-5 22 -695 0 -695 0 0 -1570z"/>
<path d="M24330 2770 l0 -1570 440 0 440 0 0 1570 0 1570 -440 0 -440 0 0
-1570z"/>
<path d="M28092 3098 l3 -1243 23 -80 c40 -140 96 -240 187 -330 44 -44 106
-95 138 -114 213 -126 592 -185 962 -151 564 52 849 290 895 746 7 74 10 478
8 1259 l-3 1150 -442 3 -442 2 -3 -1217 c-3 -1145 -4 -1220 -21 -1258 -24 -53
-44 -74 -92 -96 -44 -21 -139 -25 -194 -9 -75 21 -116 89 -131 217 -6 54 -10
524 -10 1226 l0 1137 -440 0 -441 0 3 -1242z"/>
<path d="M30660 2770 l0 -1570 945 0 945 0 0 305 0 305 -480 0 -480 0 0 360 0
360 430 0 430 0 0 295 0 295 -430 0 -430 0 0 305 0 305 450 0 450 0 -2 303 -3
302 -912 3 -913 2 0 -1570z"/>
<path d="M32840 2770 l0 -1570 925 0 925 0 0 265 0 265 -467 2 -468 3 -3 1303
-2 1302 -455 0 -455 0 0 -1570z"/>
<path d="M2940 1505 l0 -525 3615 0 3615 0 0 525 0 525 -3615 0 -3615 0 0
-525z"/>
<path d="M35630 1505 l0 -525 3615 0 3615 0 0 525 0 525 -3615 0 -3615 0 0
-525z"/>
</g>
</svg>
